<svg xmlns="http://www.w3.org/2000/svg" viewBox="0 0 24 24" width="24" height="24" aria-hidden="true">
  <path d="M12 8.2A3.8 3.8 0 1 0 12 15.8 3.8 3.8 0 0 0 12 8.2z" fill="#607D8B"/>
  <path d="M19.4 13.1c.04-.36.06-.72.06-1.1s-.02-.74-.06-1.1l2.1-1.6a.5.5 0 0 0 .12-.64l-2-3.4a.5.5 0 0 0-.6-.22l-2.5 1a8 8 0 0 0-1.9-1.1l-.4-2.6a.5.5 0 0 0-.5-.42h-4a.5.5 0 0 0-.5.42l-.4 2.6a8 8 0 0 0-1.9 1.1l-2.5-1a.5.5 0 0 0-.6.22l-2 3.4a.5.5 0 0 0 .12.64l2.1 1.6c-.04.36-.06.72-.06 1.1s.02.74.06 1.1L2.6 14.7a.5.5 0 0 0-.12.64l2 3.4c.12.2.36.28.6.22l2.5-1c.58.43 1.22.78 1.9 1.1l.4 2.6c.06.24.27.42.5.42h4c.23 0 .44-.18.5-.42l.4-2.6c.68-.32 1.32-.67 1.9-1.1l2.5 1c.24.06.48-.02.6-.22l2-3.4a.5.5 0 0 0-.12-.64l-2.1-1.6z" fill="#607D8B" opacity="0.95"/>
</svg>
